<svg aria-hidden="true" style="position: absolute; width: 0; height: 0; overflow: hidden;" version="1.1"
  xmlns="http://www.w3.org/2000/svg" xmlns:xlink="http://www.w3.org/1999/xlink">
  <defs>
    <symbol id="icon-house-solid" viewBox="0 0 36 32">
      <path d="M35.987 15.969c0 1.125-0.938 2.006-2 2.006h-2l0.044 10.012c0 0.169-0.013 0.337-0.031 0.506v1.006c0 1.381-1.119 2.5-2.5 2.5h-1c-0.069 0-0.137 0-0.206-0.006-0.087 0.006-0.175 0.006-0.262 0.006h-3.531c-1.381 0-2.5-1.119-2.5-2.5v-5.5c0-1.106-0.894-2-2-2h-4c-1.106 0-2 0.894-2 2v5.5c0 1.381-1.119 2.5-2.5 2.5h-3.494c-0.094 0-0.188-0.006-0.281-0.012-0.075 0.006-0.15 0.012-0.225 0.012h-1c-1.381 0-2.5-1.119-2.5-2.5v-7c0-0.056 0-0.119 0.006-0.175v-4.35h-2.006c-1.125 0-2-0.875-2-2.006 0-0.563 0.188-1.063 0.625-1.5l16.025-13.969c0.438-0.438 0.938-0.5 1.375-0.5s0.938 0.125 1.313 0.438l15.962 14.031c0.5 0.438 0.75 0.938 0.688 1.5z"></path>
    </symbol>
    <symbol id="icon-clock-rotate-left-solid" viewBox="0 0 32 32">
      <path d="M4.688 4.688l-2.125-2.125c-0.944-0.944-2.563-0.275-2.563 1.056v6.881c0 0.831 0.669 1.5 1.5 1.5h6.881c1.338 0 2.006-1.619 1.063-2.563l-1.925-1.925c2.169-2.169 5.169-3.513 8.481-3.513 6.625 0 12 5.375 12 12s-5.375 12-12 12c-2.55 0-4.912-0.794-6.856-2.15-0.906-0.631-2.15-0.413-2.787 0.494s-0.412 2.15 0.494 2.788c2.6 1.806 5.756 2.869 9.15 2.869 8.837 0 16-7.163 16-16s-7.163-16-16-16c-4.419 0-8.419 1.794-11.313 4.688zM16 8c-0.831 0-1.5 0.669-1.5 1.5v6.5c0 0.4 0.156 0.781 0.438 1.063l4.5 4.5c0.587 0.587 1.538 0.587 2.119 0s0.587-1.538 0-2.119l-4.063-4.063v-5.881c0-0.831-0.669-1.5-1.5-1.5z"></path>
    </symbol>
    <symbol id="icon-cart-shopping-solid" viewBox="0 0 36 32">
      <path d="M0 1.5c0-0.831 0.669-1.5 1.5-1.5h2.844c1.375 0 2.594 0.8 3.162 2h25.688c1.644 0 2.844 1.563 2.413 3.15l-2.563 9.519c-0.531 1.963-2.313 3.331-4.344 3.331h-18.031l0.338 1.781c0.137 0.706 0.756 1.219 1.475 1.219h18.019c0.831 0 1.5 0.669 1.5 1.5s-0.669 1.5-1.5 1.5h-18.019c-2.162 0-4.019-1.538-4.419-3.656l-3.225-16.938c-0.044-0.237-0.25-0.406-0.494-0.406h-2.844c-0.831 0-1.5-0.669-1.5-1.5zM8 29c0-1.657 1.343-3 3-3s3 1.343 3 3v0c0 1.657-1.343 3-3 3s-3-1.343-3-3v0zM29 26c1.657 0 3 1.343 3 3s-1.343 3-3 3v0c-1.657 0-3-1.343-3-3s1.343-3 3-3v0z"></path>
    </symbol>
    <symbol id="icon-utensils-solid" viewBox="0 0 28 32">
      <path d="M26 0c-1 0-8 2-8 11v7c0 2.206 1.794 4 4 4h2v8c0 1.106 0.894 2 2 2s2-0.894 2-2v-28c0-1.106-0.894-2-2-2zM4 1c0-0.512-0.381-0.938-0.894-0.994s-0.969 0.281-1.081 0.775l-1.894 8.519c-0.087 0.394-0.131 0.794-0.131 1.194 0 2.869 2.194 5.225 5 5.481v14.025c0 1.106 0.894 2 2 2s2-0.894 2-2v-14.025c2.806-0.256 5-2.612 5-5.481 0-0.4-0.044-0.8-0.131-1.194l-1.894-8.519c-0.113-0.5-0.581-0.831-1.088-0.775s-0.887 0.481-0.887 0.994v8.387c0 0.338-0.275 0.613-0.613 0.613-0.319 0-0.581-0.244-0.613-0.563l-0.781-8.525c-0.044-0.519-0.475-0.912-0.994-0.912s-0.95 0.394-0.994 0.912l-0.775 8.525c-0.031 0.319-0.294 0.563-0.612 0.563-0.338 0-0.612-0.275-0.612-0.613v-8.387zM7.019 10.5h-0.037l0.019-0.044 0.019 0.044z"></path>
    </symbol>
    <symbol id="icon-trash-can-solid" viewBox="0 0 28 32">
      <path d="M8.45 1.106c0.338-0.681 1.031-1.106 1.787-1.106h7.525c0.756 0 1.45 0.425 1.788 1.106l0.45 0.894h6c1.106 0 2 0.894 2 2s-0.894 2-2 2h-24c-1.106 0-2-0.894-2-2s0.894-2 2-2h6l0.45-0.894zM2 8h24v20c0 2.206-1.794 4-4 4h-16c-2.206 0-4-1.794-4-4v-20zM8 12c-0.55 0-1 0.45-1 1v14c0 0.55 0.45 1 1 1s1-0.45 1-1v-14c0-0.55-0.45-1-1-1zM14 12c-0.55 0-1 0.45-1 1v14c0 0.55 0.45 1 1 1s1-0.45 1-1v-14c0-0.55-0.45-1-1-1zM20 12c-0.55 0-1 0.45-1 1v14c0 0.55 0.45 1 1 1s1-0.45 1-1v-14c0-0.55-0.45-1-1-1z"></path>
    </symbol>
    <symbol id="icon-menu" viewBox="0 0 32 32">
      <path stroke-linejoin="round" stroke-linecap="round" stroke-miterlimit="4" stroke-width="2.3529" d="M4 16h24">
      </path>
      <path stroke-linejoin="round" stroke-linecap="round" stroke-miterlimit="4" stroke-width="2.3529" d="M4 8h24">
      </path>
      <path stroke-linejoin="round" stroke-linecap="round" stroke-miterlimit="4" stroke-width="2.3529" d="M4 24h24">
      </path>
    </symbol>
    <symbol id="icon-shuffle-solid" viewBox="0 0 32 32">
      <path d="M25.238 2.15c0.75-0.313 1.606-0.138 2.181 0.431l4 4c0.375 0.375 0.588 0.881 0.588 1.413s-0.212 1.037-0.587 1.412l-4 4c-0.575 0.575-1.431 0.744-2.181 0.431s-1.238-1.037-1.238-1.85v-1.988h-2c-0.631 0-1.225 0.294-1.6 0.8l-2.65 3.531-2.5-3.331 1.95-2.6c1.131-1.513 2.913-2.4 4.8-2.4h2v-2c0-0.806 0.488-1.538 1.238-1.85zM10.25 17.669l2.5 3.331-1.95 2.6c-1.131 1.512-2.912 2.4-4.8 2.4h-4c-1.106 0-2-0.894-2-2s0.894-2 2-2h4c0.631 0 1.225-0.294 1.6-0.8l2.65-3.531zM27.413 29.419c-0.575 0.575-1.431 0.744-2.181 0.431s-1.238-1.038-1.238-1.85v-2h-1.994c-1.887 0-3.669-0.887-4.8-2.4l-9.6-12.8c-0.375-0.506-0.969-0.8-1.6-0.8h-4c-1.106 0-2-0.894-2-2s0.894-2 2-2h4c1.888 0 3.669 0.888 4.8 2.4l9.6 12.8c0.375 0.506 0.969 0.8 1.6 0.8h2v-2c0-0.806 0.488-1.538 1.238-1.85s1.606-0.137 2.181 0.431l4 4c0.375 0.375 0.588 0.881 0.588 1.413s-0.212 1.038-0.587 1.413l-4 4z"></path>
    </symbol>
    <symbol id="icon-heart-icon" viewBox="0 0 37 32">
      <path d="M18.123 5.121c2.386-2.488 4.058-4.639 7.734-5.059 6.903-0.792 13.252 6.274 9.766 13.231-0.992 1.981-3.012 4.338-5.246 6.65-2.452 2.538-5.166 5.026-7.067 6.912l-5.184 5.142-4.284-4.123c-5.154-4.963-13.559-11.211-13.836-18.951-0.194-5.422 4.085-8.896 9.006-8.833 4.397 0.060 6.247 2.246 9.11 5.032z"></path>
    </symbol>
    <symbol id="icon-rotate-solid" viewBox="0 0 32 32">
     <path d="M8.931 8.931c3.888-3.888 10.169-3.906 14.081-0.063l-2.575 2.569c-0.431 0.431-0.556 1.075-0.325 1.637s0.781 0.925 1.387 0.925h7.469c0 0 0 0 0 0h0.531c0.831 0 1.5-0.669 1.5-1.5v-8c0-0.606-0.363-1.156-0.925-1.388s-1.206-0.106-1.637 0.325l-2.6 2.6c-5.475-5.406-14.294-5.388-19.738 0.063-1.525 1.525-2.625 3.319-3.3 5.237-0.369 1.044 0.181 2.181 1.219 2.55s2.181-0.181 2.55-1.219c0.481-1.363 1.263-2.644 2.363-3.738zM1 19.5v8c0 0.606 0.363 1.156 0.925 1.387s1.206 0.106 1.637-0.325l2.6-2.6c5.475 5.406 14.294 5.387 19.737-0.063 1.525-1.525 2.631-3.319 3.306-5.231 0.369-1.044-0.181-2.181-1.219-2.55s-2.181 0.181-2.55 1.219c-0.481 1.363-1.262 2.644-2.363 3.738-3.887 3.887-10.169 3.906-14.081 0.063l2.569-2.575c0.431-0.431 0.556-1.075 0.325-1.637s-0.781-0.925-1.387-0.925h-8c-0.831 0-1.5 0.669-1.5 1.5z"></path>
    </symbol>
    <symbol id="icon-filter-solid" viewBox="0 0 32 32">
     <path d="M5.517 31.788c-0.388 0-0.702-0.315-0.702-0.703v0-11.551c0-0.388 0.315-0.703 0.702-0.703s0.702 0.315 0.702 0.703v0 11.551c0 0.388-0.315 0.703-0.702 0.703v0zM26.448 21.025c-0.388 0-0.703-0.315-0.703-0.703v0-19.444c0-0.388 0.315-0.703 0.703-0.703s0.703 0.315 0.703 0.703v0 19.444c0 0.388-0.315 0.703-0.703 0.703v0zM15.982 31.788c-0.388 0-0.703-0.315-0.703-0.703v0-21.102c0-0.388 0.315-0.703 0.703-0.703s0.703 0.315 0.703 0.703v0 21.102c0 0.388-0.315 0.703-0.703 0.703v0z"></path>
     <path d="M15.982 10.686c-1.919 0-3.481-1.561-3.481-3.481s1.561-3.481 3.481-3.481 3.481 1.561 3.481 3.481-1.561 3.481-3.481 3.481zM15.982 5.13c-1.145 0-2.076 0.931-2.076 2.076s0.931 2.076 2.076 2.076 2.076-0.931 2.076-2.076-0.931-2.076-2.076-2.076zM5.517 20.238c-1.919 0-3.481-1.561-3.481-3.481s1.561-3.481 3.481-3.481 3.481 1.561 3.481 3.481-1.562 3.481-3.481 3.481zM5.517 14.681c-1.145 0-2.076 0.931-2.076 2.076s0.931 2.076 2.076 2.076 2.076-0.931 2.076-2.076-0.931-2.076-2.076-2.076zM26.448 26.582c-1.919 0-3.481-1.561-3.481-3.481s1.561-3.481 3.481-3.481c1.92 0 3.481 1.561 3.481 3.481s-1.561 3.481-3.481 3.481zM26.448 21.025c-1.145 0-2.076 0.931-2.076 2.076s0.931 2.076 2.076 2.076 2.076-0.931 2.076-2.076-0.931-2.076-2.076-2.076z"></path>
     <path d="M5.517 14.681c-0.388 0-0.702-0.315-0.702-0.703v0-13.1c0-0.388 0.315-0.703 0.702-0.703s0.702 0.315 0.702 0.703v0 13.1c0 0.388-0.315 0.703-0.702 0.703v0zM15.982 5.13c-0.388 0-0.703-0.315-0.703-0.702v0-3.549c0-0.388 0.315-0.703 0.703-0.703s0.703 0.315 0.703 0.703v0 3.549c0 0.388-0.315 0.702-0.703 0.702v0zM26.448 31.788c-0.388 0-0.703-0.315-0.703-0.703v0-5.207c0-0.388 0.315-0.703 0.703-0.703s0.703 0.315 0.703 0.703v0 5.207c0 0.388-0.315 0.703-0.703 0.703v0z"></path>
    </symbol>
    <symbol id="icon-search-Icon" viewBox="0 0 32 32">
      <path d="M20.667 20h-1.053l-0.373-0.36c1.301-1.502 2.093-3.475 2.093-5.634 0-0.002 0-0.004 0-0.006v0c0-4.786-3.88-8.667-8.667-8.667s-8.667 3.88-8.667 8.667c0 4.786 3.88 8.667 8.667 8.667v0c2.147 0 4.12-0.787 5.64-2.093l0.36 0.373v1.053l6.667 6.653 1.987-1.987-6.653-6.667zM12.667 20c-3.32 0-6-2.68-6-6s2.68-6 6-6 6 2.68 6 6-2.68 6-6 6z"></path>
    </symbol>
    <symbol id="icon-sun" viewBox="0 0 32 32">
      <path
        d="M9.324 16c0 3.681 2.995 6.676 6.676 6.676s6.676-2.995 6.676-6.676c0-3.681-2.995-6.676-6.676-6.676s-6.676 2.995-6.676 6.676zM16 11.991c2.211 0 4.009 1.799 4.009 4.009s-1.799 4.009-4.009 4.009c-2.211 0-4.009-1.799-4.009-4.009s1.799-4.009 4.009-4.009zM14.664 25.333h2.667v4h-2.667v-4zM14.664 2.667h2.667v4h-2.667v-4zM2.664 14.667h4v2.667h-4v-2.667zM25.331 14.667h4v2.667h-4v-2.667zM5.625 24.484l2.827-2.829 1.887 1.885-2.827 2.829-1.887-1.885zM21.653 8.459l2.829-2.829 1.885 1.885-2.829 2.829-1.885-1.885zM8.456 10.345l-2.829-2.829 1.887-1.885 2.827 2.829-1.884 1.885zM26.368 24.485l-1.885 1.885-2.829-2.829 1.885-1.885 2.829 2.829z">
      </path>
    </symbol>
     <symbol id="icon-moon" viewBox="0 0 32 32">
      <path
        d="M29.222 18.244c-1.071 0.284-2.174 0.428-3.282 0.428-3.374 0-6.542-1.312-8.922-3.691-1.563-1.572-2.686-3.526-3.259-5.667s-0.573-4.395-0.003-6.537c0.071-0.268 0.071-0.55-0.001-0.817s-0.213-0.512-0.409-0.707c-0.196-0.196-0.44-0.337-0.708-0.408s-0.55-0.072-0.817 0c-2.681 0.715-5.128 2.122-7.094 4.080-6.16 6.16-6.16 16.186 0 22.349 1.464 1.472 3.206 2.64 5.124 3.434s3.975 1.201 6.052 1.196c2.076 0.006 4.132-0.4 6.050-1.195s3.659-1.962 5.122-3.434c1.96-1.966 3.368-4.414 4.082-7.097 0.071-0.268 0.070-0.549-0.002-0.817s-0.213-0.511-0.409-0.707c-0.196-0.196-0.44-0.337-0.707-0.409s-0.549-0.073-0.817-0.002zM24.841 25.041c-1.171 1.177-2.564 2.111-4.098 2.746s-3.179 0.96-4.84 0.956c-1.661 0.004-3.307-0.321-4.841-0.957s-2.928-1.57-4.1-2.747c-4.927-4.929-4.927-12.95 0-17.879 0.952-0.951 2.051-1.742 3.255-2.344-0.176 2.274 0.141 4.559 0.929 6.7s2.029 4.085 3.638 5.702c1.613 1.614 3.558 2.858 5.699 3.647s4.428 1.103 6.703 0.921c-0.604 1.202-1.396 2.3-2.345 3.254z">
      </path>
    </symbol>
    <symbol id="icon-menu" viewBox="0 0 32 32">
      <path stroke-linejoin="round" stroke-linecap="round" stroke-miterlimit="4" stroke-width="2.3529" d="M4 16h24">
      </path>
      <path stroke-linejoin="round" stroke-linecap="round" stroke-miterlimit="4" stroke-width="2.3529" d="M4 8h24">
      </path>
      <path stroke-linejoin="round" stroke-linecap="round" stroke-miterlimit="4" stroke-width="2.3529" d="M4 24h24">
      </path>
    </symbol>
    <symbol id="icon-x-close" viewBox="0 0 32 32">
      <path
        d="M23.733 10.304 22.229 8.8l-5.963 5.963L10.303 8.8l-1.504 1.504 5.963 5.963-5.963 5.963 1.504 1.504 5.963-5.963 5.963 5.963 1.504-1.504-5.963-5.963 5.963-5.963z" />
    </symbol>
    <symbol id="icon-arrow-right-small" viewBox="0 0 19 32">
      <path   stroke-linejoin="round" stroke-linecap="round" stroke-miterlimit="4" stroke-width="4.8" d="M3.2 28.8l12.8-12.8-12.8-12.8"></path>
    </symbol>
    <symbol id="icon-arrow-left-small" viewBox="0 0 19 32">
      <path    stroke-linejoin="round" stroke-linecap="round" stroke-miterlimit="4" stroke-width="4.8" d="M16 28.8l-12.8-12.8 12.8-12.8"></path>
    </symbol>
  </defs>
</svg>